
<svg xmlns="http://www.w3.org/2000/svg" version="1.1" xmlns:xlink="http://www.w3.org/1999/xlink" preserveAspectRatio="none" x="0px" y="0px" width="300px" height="220px" viewBox="0 0 300 220">
<defs>
<g id="Symbole_1_0_Layer0_0_FILL">
<path fill="#CCCCCC" stroke="none" d="
M 228.55 15.8
L 223.65 15.8 223.65 41.7 228.55 41.7 228.55 38.95
Q 229.45 40.25 231.1 41.1 232.7 41.95 234.95 42 237.5 42 239.45 40.75 241.45 39.5 242.65 37.25 243.8 35 243.85 31.95 243.8 28.9 242.65 26.65 241.45 24.45 239.45 23.25 237.5 22 234.95 22 232.75 22.05 231.1 22.9 229.45 23.75 228.55 25.15
L 228.55 15.8
M 238.1 35.05
Q 237.35 36.35 236.2 37.05 235 37.7 233.65 37.7 232.35 37.7 231.2 37.05 230.05 36.4 229.3 35.1 228.6 33.85 228.55 32 228.6 30.15 229.3 28.9 230.05 27.6 231.2 26.95 232.35 26.3 233.65 26.3 235 26.3 236.2 26.95 237.35 27.6 238.1 28.85 238.8 30.1 238.8 31.95 238.8 33.75 238.1 35.05
M 217.9 22.3
L 212.95 22.3 212.95 25.05
Q 212.1 23.8 210.5 22.95 208.9 22.05 206.55 22 204.05 22 202.05 23.25 200.05 24.45 198.9 26.65 197.75 28.9 197.7 31.95 197.75 35 198.9 37.25 200.05 39.5 202.05 40.75 204.05 42 206.55 42 208.85 41.95 210.45 41.05 212.1 40.15 212.95 38.85
L 212.95 41.7 217.9 41.7 217.9 22.3
M 210.35 26.95
Q 211.5 27.6 212.25 28.9 212.95 30.15 212.95 32 212.95 33.85 212.25 35.1 211.5 36.4 210.35 37.05 209.2 37.7 207.8 37.7 206.5 37.7 205.35 37.05 204.15 36.35 203.45 35.05 202.75 33.75 202.7 31.95 202.75 30.1 203.45 28.85 204.15 27.6 205.35 26.95 206.5 26.3 207.8 26.3 209.2 26.3 210.35 26.95
M 193.1 15.8
L 188.2 15.8 188.2 41.7 193.1 41.7 193.1 15.8
M 180.3 36.2
Q 178.95 36.25 178.1 37.05 177.25 37.85 177.25 39.05 177.25 40.3 178.1 41.1 178.95 41.9 180.3 41.95 181.6 41.9 182.4 41.1 183.25 40.3 183.25 39.05 183.25 37.85 182.4 37.05 181.6 36.25 180.3 36.2
M 172.35 15.8
L 167.35 15.8 167.35 25
Q 166.35 23.6 164.65 22.8 163 22 161.05 22 158.55 22 156.55 23.25 154.55 24.45 153.35 26.65 152.2 28.9 152.15 31.95 152.2 35 153.35 37.25 154.5 39.5 156.5 40.75 158.5 42 161 42 163.3 42 164.9 41.1 166.5 40.2 167.35 38.85
L 167.35 41.7 172.35 41.7 172.35 15.8
M 166.7 35.1
Q 165.95 36.4 164.8 37.05 163.65 37.7 162.25 37.7 160.95 37.7 159.8 37.05 158.6 36.35 157.9 35.05 157.2 33.75 157.15 31.95 157.2 30.1 157.9 28.85 158.6 27.6 159.8 26.95 160.95 26.3 162.25 26.3 163.65 26.3 164.8 26.95 165.95 27.6 166.7 28.9 167.4 30.15 167.4 32 167.4 33.85 166.7 35.1
M 149.75 22.3
L 145.05 22.3 141.6 37.05 138 22.3 132.8 22.3 129.1 37.1 125.65 22.3 120.7 22.3 126.4 41.7 131.7 41.7 135.25 28.15 138.8 41.7 144.05 41.7 149.75 22.3
M 108.25 22
Q 105.45 22 103.2 23.25 100.95 24.45 99.65 26.7 98.3 28.95 98.3 32 98.3 35.05 99.6 37.3 100.9 39.55 103.1 40.8 105.3 42 108.1 42 111 42 113.25 40.8 115.5 39.55 116.85 37.3 118.2 35.05 118.25 32 118.2 28.95 116.9 26.7 115.6 24.45 113.35 23.25 111.1 22 108.25 22
M 112.5 28.8
Q 113.2 30.05 113.2 32 113.2 33.9 112.45 35.2 111.75 36.5 110.6 37.1 109.45 37.75 108.1 37.75 106.8 37.75 105.7 37.1 104.6 36.5 103.95 35.2 103.25 33.9 103.25 32 103.3 30.05 103.95 28.8 104.65 27.5 105.75 26.9 106.9 26.25 108.2 26.25 109.5 26.25 110.65 26.9 111.8 27.5 112.5 28.8
M 95.2 22.05
Q 93.2 22.05 91.7 22.95 90.2 23.8 89.25 25.35
L 89.25 22.3 84.35 22.3 84.35 41.7 89.25 41.7 89.25 32.05
Q 89.25 30.2 89.85 29.1 90.4 28.05 91.4 27.6 92.45 27.15 93.9 27.15
L 95.2 27.15 95.2 22.05
M 67.65 16.95
Q 64.1 17 61.35 18.55 58.55 20.15 56.9 22.95 55.3 25.75 55.3 29.45 55.3 33.15 56.9 35.9 58.55 38.75 61.35 40.3 64.1 41.9 67.65 41.9 70.4 41.9 72.7 41 75 40.05 76.65 38.3 78.3 36.5 79.15 34
L 73.5 34
Q 72.65 35.8 71.1 36.65 69.6 37.55 67.65 37.55 65.5 37.55 63.85 36.55 62.2 35.55 61.25 33.75 60.35 31.9 60.3 29.45 60.35 26.95 61.25 25.15 62.2 23.35 63.85 22.35 65.5 21.4 67.65 21.35 69.6 21.35 71.1 22.25 72.65 23.1 73.5 24.85
L 79.15 24.85
Q 78.3 22.35 76.65 20.6 75 18.8 72.7 17.9 70.4 16.95 67.65 16.95 Z"/>
</g>

<g id="Symbole_2_0_Layer6_0_FILL">
<path fill="#9966FF" stroke="none" d="
M -1.25 -39
Q -1.25 -40.55 -2.35 -41.65 -3.45 -42.75 -5 -42.75 -6.55 -42.75 -7.65 -41.65 -8.75 -40.55 -8.75 -39 -8.75 -37.45 -7.65 -36.35 -6.55 -35.25 -5 -35.25 -3.45 -35.25 -2.35 -36.35 -1.25 -37.45 -1.25 -39
M 8.75 -39
Q 8.75 -40.55 7.65 -41.65 6.55 -42.75 5 -42.75 3.45 -42.75 2.35 -41.65 1.25 -40.55 1.25 -39 1.25 -37.45 2.35 -36.35 3.45 -35.25 5 -35.25 6.55 -35.25 7.65 -36.35 8.75 -37.45 8.75 -39 Z"/>
</g>

<path id="Symbole_4_0_Layer0_0_1_STROKES" stroke="#9966FF" stroke-width="10" stroke-linejoin="round" stroke-linecap="round" fill="none" d="
M -16.25 16.25
Q -20.998828125 11.4658203125 -22.375 5.3 -22.95 2.7666015625 -22.95 0 -22.95 -9.5 -16.25 -16.25 -9.5 -22.95 0 -22.95 9.55 -22.95 16.25 -16.25 23 -9.5 23 0 23 2.7666015625 22.425 5.3 21.037890625 11.449609375 16.275 16.225"/>

<path id="Symbole_2_0_Layer2_0_1_STROKES" stroke="#9966FF" stroke-width="5" stroke-linejoin="round" stroke-linecap="square" fill="none" d="
M -72.75 33.925
Q -80 18.4919921875 -80 0.05 -80 -33.1 -56.6 -56.55 -33.15 -80 0 -80 18.4951171875 -80 33.95 -72.725
M 72.725 -33.9
Q 80 -18.4345703125 80 0.05 80 33.2 56.6 56.6 33.2 80 0 80 -18.4375 80 -33.875 72.75"/>
</defs>

<g transform="matrix( 1, 0, 0, 1, 0,164.1) ">
<g transform="matrix( 1, 0, 0, 1, 0,0) ">
<use xlink:href="#Symbole_1_0_Layer0_0_FILL"/>
</g>
</g>

<g transform="matrix( 1, 0, 0, 1, 150,90) ">
<g transform="matrix( 1, 0, 0, 1, 0,32.25) ">
<g transform="matrix( 1, 0, 0, 1, 0,0) ">
<use xlink:href="#Symbole_4_0_Layer0_0_1_STROKES"/>
</g>
</g>

<g transform="matrix( 1, 0, 0, 1, -32.8,0) ">
<g transform="matrix( 1, 0, 0, 1, 0,0) ">
<use xlink:href="#Symbole_4_0_Layer0_0_1_STROKES"/>
</g>
</g>

<g transform="matrix( 1, 0, 0, 1, 0,-32.5) ">
<g transform="matrix( 1, 0, 0, 1, 0,0) ">
<use xlink:href="#Symbole_4_0_Layer0_0_1_STROKES"/>
</g>
</g>

<g transform="matrix( 1, 0, 0, 1, 32.8,0) ">
<g transform="matrix( 1, 0, 0, 1, 0,0) ">
<use xlink:href="#Symbole_4_0_Layer0_0_1_STROKES"/>
</g>
</g>

<g transform="matrix( 1, 0, 0, 1, 0,0) ">
<use xlink:href="#Symbole_2_0_Layer6_0_FILL"/>
</g>

<g transform="matrix( 1, 0, 0, 1, 0,0) ">
<use xlink:href="#Symbole_2_0_Layer2_0_1_STROKES"/>
</g>
</g>
</svg>
