<?xml version="1.0" encoding="utf-8"?>

<!-- The icon can be used freely in both personal and commercial projects with no attribution required, but always appreciated. 
You may NOT sub-license, resell, rent, redistribute or otherwise transfer the icon without express written permission from iconmonstr.com -->

<!DOCTYPE svg PUBLIC "-//W3C//DTD SVG 1.1//EN" "http://www.w3.org/Graphics/SVG/1.1/DTD/svg11.dtd">
<svg version="1.1" xmlns="http://www.w3.org/2000/svg" xmlns:xlink="http://www.w3.org/1999/xlink" x="0px" y="0px"
	 width="64px" height="64px" viewBox="0 0 512 512" enable-background="new 0 0 512 512" xml:space="preserve">
<path id="share-3-icon" d="M456.363,217.15l-53.111,98.847l-13.448-32.978C318.75,319.965,297.6,375.414,293.297,462h-71.764
	c5.17-110.042,34.897-192.985,141.101-245.604l-13.587-33.318L456.363,217.15z M220.646,224.377
	c13.368,10.646,25.29,22.229,35.857,34.786c10.568-12.562,22.508-24.14,35.879-34.79v-86.104l35.903,0.025L257.341,50
	l-72.602,88.193l35.907,0.025V224.377z M226.917,303.48c3.346-6.436,6.94-12.671,10.786-18.712
	c-20.825-26.611-49.125-49.452-87.312-68.373l13.588-33.318L55.637,216.125l54.137,99.872l13.448-32.978
	c41.252,21.449,65.68,49.139,79.759,85.534C208.838,344.46,216.756,323.024,226.917,303.48z"/>
</svg>